<?xml version="1.0" encoding="UTF-8" standalone="no"?>
<!-- Created with Inkscape (http://www.inkscape.org/) -->

<svg
   xmlns:dc="http://purl.org/dc/elements/1.1/"
   xmlns:cc="http://creativecommons.org/ns#"
   xmlns:rdf="http://www.w3.org/1999/02/22-rdf-syntax-ns#"
   xmlns:svg="http://www.w3.org/2000/svg"
   xmlns="http://www.w3.org/2000/svg"
   xmlns:sodipodi="http://sodipodi.sourceforge.net/DTD/sodipodi-0.dtd"
   xmlns:inkscape="http://www.inkscape.org/namespaces/inkscape"
   width="625.05157"
   height="625.05157"
   id="svg2"
   version="1.1"
   inkscape:version="0.48.4 r9939"
   sodipodi:docname="401.svg">
  <defs
     id="defs4">
    <clipPath
       id="clipPath3007"
       clipPathUnits="userSpaceOnUse">
      <path
         inkscape:connector-curvature="0"
         id="path3009"
         d="m 28.346,3045.138 2267.716,0 0,253.68 -2267.716,0 0,-253.68 z" />
    </clipPath>
  </defs>
  <sodipodi:namedview
     id="base"
     pagecolor="#ffffff"
     bordercolor="#666666"
     borderopacity="1.0"
     inkscape:pageopacity="0.0"
     inkscape:pageshadow="2"
     inkscape:zoom="0.49497475"
     inkscape:cx="16.689669"
     inkscape:cy="416.32177"
     inkscape:document-units="px"
     inkscape:current-layer="layer1"
     showgrid="false"
     fit-margin-top="0"
     fit-margin-left="0"
     fit-margin-right="0"
     fit-margin-bottom="0"
     showguides="true"
     inkscape:guide-bbox="true"
     inkscape:window-width="1280"
     inkscape:window-height="737"
     inkscape:window-x="-8"
     inkscape:window-y="-8"
     inkscape:window-maximized="1">
    <sodipodi:guide
       orientation="0,1"
       position="389.91888,98.994949"
       id="guide120987" />
    <sodipodi:guide
       orientation="0,1"
       position="402.04071,311.12698"
       id="guide120989" />
    <sodipodi:guide
       orientation="1,0"
       position="313.14729,393.95949"
       id="guide120991" />
  </sodipodi:namedview>
  <metadata
     id="metadata7">
    <rdf:RDF>
      <cc:Work
         rdf:about="">
        <dc:format>image/svg+xml</dc:format>
        <dc:type
           rdf:resource="http://purl.org/dc/dcmitype/StillImage" />
        <dc:title></dc:title>
        <dc:creator>
          <cc:Agent>
            <dc:title>SNCFtgv93</dc:title>
          </cc:Agent>
        </dc:creator>
        <dc:description>http://sncfworld.fr.nf</dc:description>
      </cc:Work>
    </rdf:RDF>
  </metadata>
  <g
     inkscape:label="Calque 1"
     inkscape:groupmode="layer"
     id="layer1"
     transform="translate(-189.32416,-35.371372)">
    <rect
       style="fill:#252438;fill-opacity:1;fill-rule:nonzero;stroke:none"
       id="rect120983"
       width="625.05157"
       height="625.05157"
       x="189.32416"
       y="35.371372"
       inkscape:export-filename="C:\Users\Edmond\Desktop\1.png"
       inkscape:export-xdpi="90"
       inkscape:export-ydpi="90" />
    <path
       id="path6433"
       style="fill:#a1e1f9;fill-opacity:1;fill-rule:nonzero;stroke:none"
       d="m 394.9027,316.87642 c -12.37135,0 6.76666,-109.01781 15.9254,-109.01781 l 178.59834,0 c 9.43225,0 32.12432,109.01781 17.08737,109.01781 z M 545.81899,426.8513 c 0,-11.20939 9.09058,-20.36812 20.29999,-20.36812 11.20939,0 20.36836,9.15873 20.36836,20.36812 0,11.20941 -9.15897,20.29999 -20.36836,20.29999 -11.20941,0 -20.29999,-9.09058 -20.29999,-20.29999 z m -130.34303,0 c 0,-11.20939 9.15875,-20.36812 20.36814,-20.36812 11.20939,0 20.36837,9.15873 20.36837,20.36812 0,11.20941 -9.15898,20.29999 -20.36837,20.29999 -11.20939,0 -20.36814,-9.09058 -20.36814,-20.29999 z m -2.05135,79.28583 23.03396,-25.35765 c 12.37112,3.55404 24.1273,3.55404 32.39782,3.55404 l 64.52214,0 c 8.2703,0 20.09487,0 32.46621,-3.55404 l 22.96581,25.35765 z m -45.04247,50.10036 20.57327,-22.69207 224.32435,0 20.29976,22.69207 c 5.0579,5.26303 12.71325,5.26303 17.42925,0 4.71625,-5.33118 4.71625,-13.87498 0,-19.47968 l -61.58304,-68.3497 c 10.86751,-8.81708 21.1882,-22.69229 28.57003,-43.60723 10.59423,-29.80061 17.70278,-56.04694 19.7532,-88.44478 2.93911,-40.12132 -13.60169,-102.59305 -24.4692,-131.43659 l -3.82779,-10.32095 c -2.39232,-6.49315 -11.20939,-20.36812 -27.13503,-36.84056 -13.8066,-14.42178 -26.79313,-15.31022 -46.88799,-15.31022 l -68.62322,0 c -20.09484,0 -33.013,0.88892 -46.88797,15.31022 -15.92564,16.47244 -24.74273,30.34741 -27.13479,36.84056 l -3.8278,10.32095 c -10.8675,28.84354 -27.4083,91.31527 -24.40082,131.43659 1.70947,32.39784 9.09059,58.64417 19.68481,88.44478 7.38183,20.91494 17.42926,34.79015 28.63865,43.60723 l -61.58327,68.3497 c -5.0579,5.33142 -5.0579,14.1485 0,19.47968 4.64787,5.26303 12.30298,5.26303 17.0876,0 z"
       inkscape:connector-curvature="0"
       sodipodi:nodetypes="sssssssssssssssccsscccccccccccccccssccccccccc"
       inkscape:export-filename="C:\Users\Edmond\Desktop\1.png"
       inkscape:export-xdpi="90"
       inkscape:export-ydpi="90" />
  </g>
</svg>
