<?xml version="1.0" standalone="no"?>
<!DOCTYPE svg PUBLIC "-//W3C//DTD SVG 20010904//EN"
 "http://www.w3.org/TR/2001/REC-SVG-20010904/DTD/svg10.dtd">
<svg version="1.0" xmlns="http://www.w3.org/2000/svg"
 width="657.000000pt" height="357.000000pt" viewBox="0 0 657.000000 357.000000"
 preserveAspectRatio="xMidYMid meet">

<g transform="translate(0.000000,357.000000) scale(0.100000,-0.100000)"
fill="#000000" stroke="none">
<path d="M2629 2711 c-168 -54 -281 -171 -324 -338 -13 -48 -15 -179 -15 -845
l0 -788 788 0 c692 0 795 2 843 16 168 49 283 164 333 333 14 48 16 148 16
848 l0 793 -792 -1 c-732 0 -797 -1 -849 -18z m961 -367 c47 -8 108 -25 136
-38 67 -31 94 -82 94 -179 0 -59 2 -67 19 -67 51 0 81 -41 81 -110 0 -64 -31
-109 -77 -110 l-22 0 -3 -274 -3 -275 -27 -28 c-19 -19 -28 -40 -28 -61 0 -40
-44 -90 -86 -98 -44 -8 -102 42 -110 97 l-7 39 -278 0 c-277 0 -279 0 -279
-21 0 -63 -72 -129 -123 -113 -42 12 -77 55 -77 93 0 24 -8 43 -27 64 l-28 28
-3 275 -3 274 -24 0 c-14 0 -34 13 -50 32 -24 29 -27 38 -23 90 5 66 20 87 69
97 l33 7 2 76 c3 91 21 131 72 157 49 25 171 51 284 61 122 11 381 2 488 -16z"/>
<path d="M3032 2258 c-20 -20 -15 -76 7 -88 26 -14 456 -14 482 0 12 7 19 21
19 40 0 63 11 60 -254 60 -175 0 -245 -3 -254 -12z"/>
<path d="M2850 2051 c-11 -21 -15 -398 -4 -425 5 -14 53 -16 434 -16 381 0
429 2 434 16 3 9 6 107 6 219 0 192 -1 205 -19 215 -13 6 -166 10 -430 10
-395 0 -411 -1 -421 -19z"/>
<path d="M2874 1462 c-37 -24 -39 -93 -4 -112 50 -27 100 2 100 58 0 46 -59
79 -96 54z"/>
<path d="M3612 1454 c-18 -12 -22 -24 -20 -52 6 -66 90 -85 117 -26 21 47 -10
93 -64 94 -6 0 -21 -7 -33 -16z"/>
<path d="M4360 575 c-7 -9 -11 -17 -9 -19 7 -7 49 13 49 24 0 15 -26 12 -40
-5z"/>
<path d="M970 525 c0 -9 9 -15 25 -15 24 0 25 -3 25 -60 0 -53 2 -60 20 -60
18 0 20 7 20 60 0 53 2 60 20 60 11 0 20 7 20 15 0 12 -14 15 -65 15 -51 0
-65 -3 -65 -15z"/>
<path d="M1152 463 c2 -61 6 -78 18 -78 9 0 16 11 18 28 4 34 29 36 38 2 4
-16 13 -25 25 -25 23 0 26 32 4 53 -13 13 -13 16 0 21 18 7 20 47 3 64 -7 7
-34 12 -60 12 l-49 0 3 -77z m71 32 c1 -5 -6 -11 -15 -13 -11 -2 -18 3 -18 13
0 17 30 18 33 0z"/>
<path d="M1336 483 c-9 -32 -20 -66 -22 -75 -4 -13 0 -18 15 -18 12 0 21 7 21
15 0 10 10 15 30 15 20 0 30 -5 30 -15 0 -8 9 -15 20 -15 25 0 25 9 1 85 -17
54 -22 60 -48 63 -27 3 -30 0 -47 -55z m58 -5 c5 -21 3 -28 -9 -28 -15 0 -22
40 -8 53 8 9 9 8 17 -25z"/>
<path d="M1500 465 c0 -60 3 -75 15 -75 11 0 15 13 16 53 l0 52 27 -52 c20
-41 31 -53 49 -53 22 0 23 3 23 75 0 59 -3 75 -14 75 -11 0 -16 -15 -18 -52
l-3 -53 -29 53 c-19 33 -36 52 -48 52 -16 0 -18 -9 -18 -75z"/>
<path d="M1690 525 c-20 -24 -4 -59 37 -79 32 -15 35 -19 20 -27 -10 -6 -27
-9 -39 -7 -37 5 -32 -20 5 -27 47 -9 76 1 83 30 8 31 -1 44 -42 61 -44 18 -43
34 1 34 24 0 35 5 35 15 0 21 -83 21 -100 0z"/>
<path d="M1840 465 c0 -67 2 -75 19 -75 13 0 21 8 23 22 2 16 12 24 36 29 39
8 39 7 47 40 10 39 -16 59 -76 59 l-49 0 0 -75z m85 25 c0 -8 -10 -16 -22 -18
-18 -3 -23 2 -23 18 0 16 5 21 23 18 12 -2 22 -10 22 -18z"/>
<path d="M2026 524 c-10 -10 -16 -33 -16 -64 0 -42 4 -52 25 -66 30 -19 90
-12 99 12 11 27 6 110 -6 122 -17 17 -84 15 -102 -4z m69 -64 c0 -38 -3 -45
-20 -45 -15 0 -21 8 -23 33 -4 45 4 64 25 60 14 -3 18 -13 18 -48z"/>
<path d="M2190 465 c0 -68 2 -75 20 -75 15 0 20 7 20 25 0 18 5 25 19 25 12 0
21 -9 25 -25 4 -16 13 -25 26 -25 24 0 26 18 5 47 -13 18 -13 22 0 33 38 32 2
70 -66 70 l-49 0 0 -75z m85 25 c0 -8 -10 -16 -22 -18 -18 -3 -23 2 -23 18 0
16 5 21 23 18 12 -2 22 -10 22 -18z"/>
<path d="M2360 525 c0 -8 9 -15 20 -15 18 0 20 -7 20 -60 0 -53 2 -60 20 -60
18 0 20 7 20 59 0 52 3 60 20 63 45 7 22 23 -37 26 -52 2 -63 0 -63 -13z"/>
<path d="M2610 520 c-22 -22 -27 -78 -10 -110 18 -34 110 -38 110 -4 0 9 -11
14 -35 14 -29 0 -36 4 -41 27 -9 34 6 57 40 61 14 2 26 10 26 18 0 22 -66 18
-90 -6z"/>
<path d="M2750 478 c0 -35 4 -68 8 -74 11 -17 47 -26 76 -18 37 9 33 32 -6 36
-33 3 -33 4 -36 61 -3 49 -6 57 -22 57 -18 0 -20 -7 -20 -62z"/>
<path d="M2912 528 c-7 -7 -12 -38 -12 -70 0 -67 18 -84 76 -73 43 8 44 23 2
27 -46 4 -53 38 -9 38 21 0 31 5 31 15 0 10 -10 15 -30 15 -20 0 -30 5 -30 15
0 10 11 15 35 15 24 0 35 5 35 15 0 19 -80 21 -98 3z"/>
<path d="M3060 465 c0 -68 2 -75 20 -75 14 0 20 7 20 23 0 13 3 26 6 30 12 12
34 -6 34 -29 0 -19 5 -24 24 -24 23 0 24 2 15 30 -6 17 -16 30 -22 30 -7 0 -4
5 6 11 20 12 23 49 5 67 -7 7 -34 12 -60 12 l-48 0 0 -75z m78 28 c-5 -26 -38
-29 -38 -4 0 15 6 21 21 21 14 0 19 -5 17 -17z"/>
<path d="M3236 509 c-3 -17 -6 -51 -6 -75 0 -37 3 -44 20 -44 18 0 20 7 21 63
1 66 2 66 19 0 9 -36 15 -43 35 -43 21 0 26 6 31 40 10 61 24 58 24 -4 0 -51
2 -56 21 -56 20 0 21 4 15 53 -3 28 -6 62 -6 75 0 18 -6 22 -30 22 -25 0 -30
-5 -39 -37 -6 -21 -11 -45 -12 -53 -1 -16 -13 18 -23 63 -5 22 -12 27 -35 27
-24 0 -30 -5 -35 -31z"/>
<path d="M3486 527 c-28 -21 -26 -105 3 -129 53 -42 111 -8 111 66 0 27 -6 51
-16 60 -19 19 -74 21 -98 3z m69 -67 c0 -38 -3 -45 -20 -45 -15 0 -21 8 -23
33 -4 45 4 64 25 60 14 -3 18 -13 18 -48z"/>
<path d="M3657 534 c-4 -4 -7 -38 -7 -76 0 -61 2 -68 20 -68 17 0 20 7 20 48
l1 47 25 -48 c20 -38 30 -48 47 -45 20 3 22 9 25 76 3 67 1 72 -18 72 -18 0
-20 -6 -20 -52 l0 -53 -28 50 c-25 47 -49 65 -65 49z"/>
<path d="M3830 525 c0 -9 9 -15 25 -15 24 0 25 -3 25 -60 0 -47 3 -60 15 -60
12 0 15 13 15 60 0 57 1 60 25 60 16 0 25 6 25 15 0 12 -14 15 -65 15 -51 0
-65 -3 -65 -15z"/>
<path d="M4077 533 c-4 -3 -7 -37 -7 -75 0 -51 3 -68 14 -68 9 0 16 19 21 58
l8 57 11 -45 c10 -37 16 -46 38 -48 23 -3 26 1 32 43 9 59 26 49 26 -16 0 -37
4 -49 15 -49 13 0 15 13 13 73 l-3 72 -30 0 c-28 0 -31 -4 -41 -50 -11 -48
-11 -49 -18 -20 -14 58 -25 75 -49 75 -13 0 -27 -3 -30 -7z"/>
<path d="M4310 514 c-12 -30 -13 -94 -2 -110 11 -17 50 -27 78 -20 34 9 30 26
-6 26 -16 0 -30 2 -30 4 0 2 -3 11 -6 20 -5 13 1 16 25 16 21 0 31 5 31 15 0
10 -10 15 -31 15 -41 0 -33 24 9 28 52 5 41 32 -13 32 -40 0 -47 -3 -55 -26z"/>
<path d="M4450 525 c0 -9 9 -15 25 -15 24 0 25 -3 25 -60 0 -53 2 -60 20 -60
18 0 20 7 20 60 0 53 2 60 20 60 11 0 20 7 20 15 0 12 -14 15 -65 15 -51 0
-65 -3 -65 -15z"/>
<path d="M4630 465 c0 -60 3 -75 15 -75 9 0 15 9 15 25 0 18 5 25 20 25 13 0
22 -9 26 -25 4 -16 13 -25 26 -25 17 0 19 4 13 28 -3 15 -11 28 -16 30 -5 2
-2 10 6 19 38 37 6 73 -64 73 l-41 0 0 -75z m75 25 c0 -22 -39 -19 -43 3 -3
15 1 18 20 15 12 -2 23 -10 23 -18z"/>
<path d="M4818 528 c-36 -29 -26 -131 15 -142 38 -10 56 -7 77 14 25 25 28
101 4 124 -19 19 -74 21 -96 4z m70 -58 c3 -42 -10 -65 -32 -57 -16 7 -23 76
-9 91 17 17 38 -1 41 -34z"/>
<path d="M4980 465 c0 -68 2 -75 20 -75 15 0 20 7 20 25 0 21 5 25 28 25 35 0
52 16 52 50 0 38 -18 50 -72 50 l-48 0 0 -75z m80 25 c0 -13 -7 -20 -20 -20
-13 0 -20 7 -20 20 0 13 7 20 20 20 13 0 20 -7 20 -20z"/>
<path d="M5165 526 c-14 -10 -19 -26 -19 -65 0 -59 8 -70 56 -77 28 -5 40 -2
57 15 26 26 29 101 5 125 -19 20 -74 21 -99 2z m71 -41 c8 -34 -3 -75 -21 -75
-20 0 -37 45 -29 76 8 33 42 32 50 -1z"/>
<path d="M5330 470 c0 -65 2 -71 24 -81 30 -14 76 -4 76 16 0 10 -10 15 -30
15 l-30 0 0 60 c0 53 -2 60 -20 60 -18 0 -20 -7 -20 -70z"/>
<path d="M5487 533 c-4 -3 -7 -37 -7 -74 0 -66 1 -68 29 -74 32 -7 81 3 81 16
0 5 -16 9 -35 9 -28 0 -35 4 -35 20 0 16 7 20 30 20 20 0 30 5 30 15 0 10 -10
15 -30 15 -42 0 -40 28 2 32 54 5 47 28 -9 28 -28 0 -53 -3 -56 -7z"/>
</g>
</svg>
