<svg xmlns="http://www.w3.org/2000/svg" xmlns:svg="http://www.w3.org/2000/svg" id="svg2" width="625.052" height="625.052" version="1.1"><defs id="defs4"><clipPath id="clipPath3007" clipPathUnits="userSpaceOnUse"><path id="path3009" d="m 28.346,3045.138 2267.716,0 0,253.68 -2267.716,0 0,-253.68 z"/></clipPath><clipPath id="clipPath4267" clipPathUnits="userSpaceOnUse"><path id="path4269" d="m 141.732,212.304 557.521,0 0,2857.617 -557.521,0 0,-2857.617 z"/></clipPath><clipPath id="clipPath69119" clipPathUnits="userSpaceOnUse"><path id="path69121" d="m 188.088,3015.018 -1.666,0 c -0.001,1.045 -0.002,2.79 -0.003,4.171 -0.371,-0.478 -0.743,-1.031 -1.012,-1.62 -0.436,-0.959 -0.535,-1.848 -0.535,-2.455 0,-0.032 0,-0.064 0,-0.096 l -1.664,0 c -0.011,0.806 0.11,1.974 0.686,3.24 0.425,0.933 1.043,1.778 1.591,2.423 l 0,4.334 c -0.905,0.25 -1.694,0.78 -2.272,1.485 l 0,-1.523 c 0,-0.213 -0.172,-0.385 -0.384,-0.385 -0.213,0 -0.385,0.172 -0.385,0.385 l 0,2.908 c -0.152,0.446 -0.234,0.924 -0.234,1.42 0,0.2 0.092,0.375 0.234,0.493 l 0,2.939 -6.547,0 0,6.681 6.854,0 0.078,0.01 c 0.212,0 0.384,-0.173 0.384,-0.384 l 0,-9.214 c 0.167,-0.114 0.275,-0.306 0.275,-0.524 0,-1.751 1.43,-3.176 3.184,-3.176 0.463,0 0.909,-0.07 1.327,-0.202 l 0.093,-0.032 c 1.767,-0.596 3.044,-2.261 3.044,-4.222 0,-0.354 -0.287,-0.641 -0.639,-0.641 -0.355,0 -0.641,0.287 -0.641,0.641 0,1.242 -0.72,2.318 -1.764,2.841 l -0.004,-9.496 m -9.919,22.294 -0.053,-0.053 0,-0.555 0.053,-0.051 0.69,0 c 0,-0.098 0,-3.116 0,-3.116 l 0.051,-0.05 0.964,0 0.051,0.05 0,3.722 -0.051,0.053 -1.705,0 m 1.224,1.356 c -0.164,0 -0.303,-0.039 -0.417,-0.116 -0.116,-0.078 -0.172,-0.175 -0.172,-0.289 0,-0.115 0.058,-0.212 0.173,-0.292 0.116,-0.078 0.256,-0.119 0.416,-0.119 0.165,0 0.306,0.041 0.423,0.119 0.117,0.08 0.174,0.177 0.174,0.292 0,0.111 -0.057,0.207 -0.174,0.285 -0.117,0.08 -0.258,0.12 -0.423,0.12 m 1.439,-23.65 -1.663,0 c 0,0.02 10e-4,0.04 10e-4,0.06 0,0.61 -0.098,1.497 -0.536,2.458 -0.27,0.588 -0.641,1.142 -1.012,1.618 -0.001,-1.365 -0.002,-3.087 -0.003,-4.136 l -1.665,0 -0.003,7.323 c -0.128,-0.011 -0.256,-0.017 -0.383,-0.017 -0.989,0 -1.933,0.336 -2.698,0.918 l 0,-2.596 c 0.551,-0.645 1.167,-1.489 1.591,-2.424 0.568,-1.247 0.693,-2.399 0.685,-3.204 l -1.663,0 c 0,0.02 0,0.04 0,0.06 0,0.61 -0.099,1.497 -0.536,2.458 -0.268,0.588 -0.64,1.142 -1.011,1.618 0,-1.365 -0.002,-3.087 -0.003,-4.136 l -1.663,0 -0.004,6.237 -0.151,0 c -1.214,0.158 -2.257,0.803 -2.955,1.72 l 0,-2.284 c 0.548,-0.646 1.164,-1.49 1.589,-2.423 0.579,-1.271 0.698,-2.444 0.686,-3.25 l -1.664,0 c 0.001,0.035 0.001,0.07 0.001,0.106 0,0.609 -0.099,1.497 -0.536,2.456 -0.267,0.589 -0.64,1.143 -1.011,1.619 -0.001,-1.385 -0.003,-3.137 -0.004,-4.181 l -1.664,0 -0.004,9.421 -0.109,-0.078 c -0.669,-0.527 -1.092,-1.281 -1.191,-2.123 -0.015,-0.128 -0.023,-0.254 -0.023,-0.381 0,-0.191 0.017,-0.38 0.051,-0.566 l 0.009,-0.116 c 0,-0.303 -0.216,-0.572 -0.524,-0.628 -0.039,-0.01 -0.078,-0.011 -0.117,-0.011 -0.302,0 -0.571,0.215 -0.628,0.523 -0.079,0.438 -0.094,0.884 -0.04,1.329 0.14,1.183 0.735,2.239 1.672,2.976 0.28,0.22 0.584,0.4 0.9,0.546 l 0,0.027 0.06,0 c 0.566,0.25 1.177,0.384 1.802,0.384 0.175,0 0.351,-0.011 0.527,-0.032 0.322,-0.038 0.561,-0.309 0.564,-0.632 0.009,-1.58 1.195,-2.923 2.76,-3.131 l 0,1.213 c 0,0.172 -0.004,0.37 0,0.574 l 0,0.074 0.001,0 c 0.013,0.662 0.093,1.377 0.517,1.58 0.261,0.125 0.447,0.191 0.743,0.191 0.068,0 0.141,0 0.222,-0.01 0.381,-0.035 0.715,-0.275 0.863,-0.56 0.611,-1.174 1.628,-1.988 2.93,-1.988 0.133,0 0.27,0.01 0.409,0.026 l 0,0.113 c 0,0.172 -0.004,0.37 0,0.574 l 0,0.074 0.001,0 c 0.013,0.662 0.093,1.377 0.517,1.58 0.26,0.125 0.447,0.191 0.743,0.191 0.067,0 0.141,0 0.222,-0.01 0.38,-0.035 0.716,-0.275 0.863,-0.56 0.61,-1.174 1.626,-1.99 2.928,-1.99 0.178,0 0.36,0.015 0.548,0.046 0.036,0.01 0.071,0.01 0.107,0.01 0.306,0 0.577,-0.221 0.629,-0.533 0.059,-0.349 -0.176,-0.678 -0.525,-0.737 -0.243,-0.041 -0.486,-0.06 -0.726,-0.06 -0.991,0 -1.938,0.336 -2.702,0.919 l 0,-2.596 c 0.547,-0.645 1.166,-1.489 1.59,-2.424 0.568,-1.247 0.693,-2.399 0.686,-3.204 m -3.493,11.631 c -0.766,0 -1.385,0.621 -1.385,1.385 0,0.763 0.619,1.383 1.385,1.383 0.764,0 1.384,-0.62 1.384,-1.383 0,-0.764 -0.62,-1.385 -1.384,-1.385 m -5.687,0 c -0.764,0 -1.384,0.621 -1.384,1.385 0,0.763 0.62,1.383 1.384,1.383 0.764,0 1.385,-0.62 1.385,-1.383 0,-0.764 -0.621,-1.385 -1.385,-1.385 m 15.052,0.168 c -0.765,0 -1.385,0.619 -1.385,1.383 0,0.765 0.62,1.384 1.385,1.384 0.765,0 1.384,-0.619 1.384,-1.384 0,-0.764 -0.619,-1.383 -1.384,-1.383 m -20.763,0.01 c -0.765,0 -1.385,0.621 -1.385,1.385 0,0.762 0.62,1.383 1.385,1.383 0.766,0 1.385,-0.621 1.385,-1.383 0,-0.764 -0.619,-1.385 -1.385,-1.385"/></clipPath><clipPath id="clipPath69125" clipPathUnits="userSpaceOnUse"><path id="path69127" d="M 2267.72,3401.57 0,3401.57 0,0 l 2267.72,0 0,3401.57 z"/></clipPath><clipPath id="clipPath69131" clipPathUnits="userSpaceOnUse"><path id="path69133" d="M 0.030029,3401.58 2267.73,3401.58 2267.73,0 0.030029,0 l 0,3401.58 z"/></clipPath><clipPath id="clipPath69095" clipPathUnits="userSpaceOnUse"><path id="path69097" d="m 192.909,3015.018 -4.821,0 0.004,9.496 c 1.044,-0.523 1.764,-1.599 1.764,-2.841 0,-0.354 0.286,-0.641 0.641,-0.641 0.352,0 0.639,0.287 0.639,0.641 0,1.961 -1.277,3.626 -3.044,4.222 l -0.093,0.032 c -0.418,0.132 -0.864,0.202 -1.327,0.202 -1.754,0 -3.184,1.425 -3.184,3.176 0,0.218 -0.108,0.41 -0.275,0.524 l 0,9.214 c 0,0.211 -0.172,0.384 -0.384,0.384 l -0.078,-0.01 -6.854,0 0,-6.681 6.547,0 0,-2.939 c -0.142,-0.118 -0.234,-0.293 -0.234,-0.493 0,-0.496 0.082,-0.974 0.234,-1.42 l 0,-2.908 c 0,-0.213 0.172,-0.385 0.385,-0.385 0.212,0 0.384,0.172 0.384,0.385 l 0,1.523 c 0.578,-0.705 1.367,-1.235 2.272,-1.485 l 0,-4.334 c -0.548,-0.645 -1.166,-1.49 -1.591,-2.423 -0.576,-1.266 -0.697,-2.434 -0.686,-3.24 l -2.376,0 c 0.007,0.805 -0.118,1.957 -0.686,3.204 -0.424,0.935 -1.043,1.779 -1.59,2.424 l 0,2.596 c 0.764,-0.583 1.711,-0.919 2.702,-0.919 0.24,0 0.483,0.019 0.726,0.06 0.349,0.059 0.584,0.388 0.525,0.737 -0.052,0.312 -0.323,0.533 -0.629,0.533 -0.036,0 -0.071,0 -0.107,-0.01 -0.188,-0.031 -0.37,-0.046 -0.548,-0.046 -1.302,0 -2.318,0.816 -2.928,1.99 -0.147,0.285 -0.483,0.525 -0.863,0.56 -0.081,0.01 -0.155,0.01 -0.222,0.01 -0.296,0 -0.483,-0.066 -0.743,-0.191 -0.424,-0.203 -0.504,-0.918 -0.517,-1.58 l -0.001,0 0,-0.074 c -0.004,-0.204 0,-0.402 0,-0.574 l 0,-0.113 c -0.139,-0.017 -0.276,-0.026 -0.409,-0.026 -1.302,0 -2.319,0.814 -2.93,1.988 -0.148,0.285 -0.482,0.525 -0.863,0.56 -0.081,0.01 -0.154,0.01 -0.222,0.01 -0.296,0 -0.482,-0.066 -0.743,-0.191 -0.424,-0.203 -0.504,-0.918 -0.517,-1.58 l -0.001,0 0,-0.074 c -0.004,-0.204 0,-0.402 0,-0.574 l 0,-1.213 c -1.565,0.208 -2.751,1.551 -2.76,3.131 -0.003,0.323 -0.242,0.594 -0.564,0.632 -0.176,0.021 -0.352,0.032 -0.527,0.032 -0.625,0 -1.236,-0.134 -1.802,-0.384 l -0.06,0 0,-0.027 c -0.316,-0.146 -0.62,-0.326 -0.9,-0.546 -0.937,-0.737 -1.532,-1.793 -1.672,-2.976 -0.054,-0.445 -0.039,-0.891 0.04,-1.329 0.057,-0.308 0.326,-0.523 0.628,-0.523 0.039,0 0.078,0 0.117,0.011 0.308,0.056 0.524,0.325 0.524,0.628 l -0.009,0.116 c -0.034,0.186 -0.051,0.375 -0.051,0.566 0,0.127 0.008,0.253 0.023,0.381 0.099,0.842 0.522,1.596 1.191,2.123 l 0.109,0.078 0.004,-9.421 -4.38,0 0,23.318 c 0,2.411 1.954,4.364 4.364,4.364 l 24.003,0 c 2.411,0 4.365,-1.953 4.365,-4.364 l 0,-23.318 m -15.57,14.399 c -0.766,0 -1.385,-0.62 -1.385,-1.383 0,-0.764 0.619,-1.385 1.385,-1.385 0.764,0 1.384,0.621 1.384,1.385 0,0.763 -0.62,1.383 -1.384,1.383 m -5.687,0 c -0.764,0 -1.384,-0.62 -1.384,-1.383 0,-0.764 0.62,-1.385 1.384,-1.385 0.764,0 1.385,0.621 1.385,1.385 0,0.763 -0.621,1.383 -1.385,1.383 m 15.052,0.167 c -0.765,0 -1.385,-0.619 -1.385,-1.384 0,-0.764 0.62,-1.383 1.385,-1.383 0.765,0 1.384,0.619 1.384,1.383 0,0.765 -0.619,1.384 -1.384,1.384 m -20.763,0.01 c -0.765,0 -1.385,-0.621 -1.385,-1.383 0,-0.764 0.62,-1.385 1.385,-1.385 0.766,0 1.385,0.621 1.385,1.385 0,0.762 -0.619,1.383 -1.385,1.383 m 20.481,-14.576 -1.55,0 c 0,0.032 0,0.064 0,0.096 0,0.607 0.099,1.496 0.535,2.455 0.269,0.589 0.641,1.142 1.012,1.62 10e-4,-1.381 0.002,-3.126 0.003,-4.171 m -7.253,0 -1.55,0 c 0.001,1.049 0.002,2.771 0.003,4.136 0.371,-0.476 0.742,-1.03 1.012,-1.618 0.438,-0.961 0.536,-1.848 0.536,-2.458 0,-0.02 -10e-4,-0.04 -10e-4,-0.06 m -3.215,0 -0.808,0 c 0.008,0.805 -0.117,1.957 -0.685,3.204 -0.424,0.935 -1.04,1.779 -1.591,2.424 l 0,2.596 c 0.765,-0.582 1.709,-0.918 2.698,-0.918 0.127,0 0.255,0.01 0.383,0.017 l 0.003,-7.323 m -2.471,0 -1.55,0 c 0.001,1.049 0.003,2.771 0.003,4.136 0.371,-0.476 0.743,-1.03 1.011,-1.618 0.437,-0.961 0.536,-1.848 0.536,-2.458 0,-0.02 0,-0.04 0,-0.06 m -3.213,0 -0.835,0 c 0.012,0.806 -0.107,1.979 -0.686,3.25 -0.425,0.933 -1.041,1.777 -1.589,2.423 l 0,2.284 c 0.698,-0.917 1.741,-1.562 2.955,-1.72 l 0.151,0 0.004,-6.237 m -2.499,0 -1.55,0 c 0.001,1.044 0.003,2.796 0.004,4.181 0.371,-0.476 0.744,-1.03 1.011,-1.619 0.437,-0.959 0.536,-1.847 0.536,-2.456 0,-0.036 0,-0.071 -0.001,-0.106 m 12.103,18.469 -0.964,0 -0.051,0.05 c 0,0 0,3.018 0,3.116 l -0.69,0 -0.053,0.051 0,0.555 0.053,0.053 1.705,0 0.051,-0.053 0,-3.722 -0.051,-0.05 m -0.481,4.365 c -0.16,0 -0.3,0.041 -0.416,0.119 -0.115,0.08 -0.173,0.177 -0.173,0.292 0,0.114 0.056,0.211 0.172,0.289 0.114,0.077 0.253,0.116 0.417,0.116 0.165,0 0.306,-0.04 0.423,-0.12 0.117,-0.078 0.174,-0.174 0.174,-0.285 0,-0.115 -0.057,-0.212 -0.174,-0.292 -0.117,-0.078 -0.258,-0.119 -0.423,-0.119"/></clipPath><clipPath id="clipPath69101" clipPathUnits="userSpaceOnUse"><path id="path69103" d="M 2267.72,3401.57 0,3401.57 0,0 l 2267.72,0 0,3401.57 z"/></clipPath><clipPath id="clipPath69107" clipPathUnits="userSpaceOnUse"><path id="path69109" d="M 0.030029,3401.58 2267.73,3401.58 2267.73,0 0.030029,0 l 0,3401.58 z"/></clipPath><clipPath id="clipPath69119-1" clipPathUnits="userSpaceOnUse"><path id="path69121-7" d="m 188.088,3015.018 -1.666,0 c -0.001,1.045 -0.002,2.79 -0.003,4.171 -0.371,-0.478 -0.743,-1.031 -1.012,-1.62 -0.436,-0.959 -0.535,-1.848 -0.535,-2.455 0,-0.032 0,-0.064 0,-0.096 l -1.664,0 c -0.011,0.806 0.11,1.974 0.686,3.24 0.425,0.933 1.043,1.778 1.591,2.423 l 0,4.334 c -0.905,0.25 -1.694,0.78 -2.272,1.485 l 0,-1.523 c 0,-0.213 -0.172,-0.385 -0.384,-0.385 -0.213,0 -0.385,0.172 -0.385,0.385 l 0,2.908 c -0.152,0.446 -0.234,0.924 -0.234,1.42 0,0.2 0.092,0.375 0.234,0.493 l 0,2.939 -6.547,0 0,6.681 6.854,0 0.078,0.01 c 0.212,0 0.384,-0.173 0.384,-0.384 l 0,-9.214 c 0.167,-0.114 0.275,-0.306 0.275,-0.524 0,-1.751 1.43,-3.176 3.184,-3.176 0.463,0 0.909,-0.07 1.327,-0.202 l 0.093,-0.032 c 1.767,-0.596 3.044,-2.261 3.044,-4.222 0,-0.354 -0.287,-0.641 -0.639,-0.641 -0.355,0 -0.641,0.287 -0.641,0.641 0,1.242 -0.72,2.318 -1.764,2.841 l -0.004,-9.496 m -9.919,22.294 -0.053,-0.053 0,-0.555 0.053,-0.051 0.69,0 c 0,-0.098 0,-3.116 0,-3.116 l 0.051,-0.05 0.964,0 0.051,0.05 0,3.722 -0.051,0.053 -1.705,0 m 1.224,1.356 c -0.164,0 -0.303,-0.039 -0.417,-0.116 -0.116,-0.078 -0.172,-0.175 -0.172,-0.289 0,-0.115 0.058,-0.212 0.173,-0.292 0.116,-0.078 0.256,-0.119 0.416,-0.119 0.165,0 0.306,0.041 0.423,0.119 0.117,0.08 0.174,0.177 0.174,0.292 0,0.111 -0.057,0.207 -0.174,0.285 -0.117,0.08 -0.258,0.12 -0.423,0.12 m 1.439,-23.65 -1.663,0 c 0,0.02 10e-4,0.04 10e-4,0.06 0,0.61 -0.098,1.497 -0.536,2.458 -0.27,0.588 -0.641,1.142 -1.012,1.618 -0.001,-1.365 -0.002,-3.087 -0.003,-4.136 l -1.665,0 -0.003,7.323 c -0.128,-0.011 -0.256,-0.017 -0.383,-0.017 -0.989,0 -1.933,0.336 -2.698,0.918 l 0,-2.596 c 0.551,-0.645 1.167,-1.489 1.591,-2.424 0.568,-1.247 0.693,-2.399 0.685,-3.204 l -1.663,0 c 0,0.02 0,0.04 0,0.06 0,0.61 -0.099,1.497 -0.536,2.458 -0.268,0.588 -0.64,1.142 -1.011,1.618 0,-1.365 -0.002,-3.087 -0.003,-4.136 l -1.663,0 -0.004,6.237 -0.151,0 c -1.214,0.158 -2.257,0.803 -2.955,1.72 l 0,-2.284 c 0.548,-0.646 1.164,-1.49 1.589,-2.423 0.579,-1.271 0.698,-2.444 0.686,-3.25 l -1.664,0 c 0.001,0.035 0.001,0.07 0.001,0.106 0,0.609 -0.099,1.497 -0.536,2.456 -0.267,0.589 -0.64,1.143 -1.011,1.619 -0.001,-1.385 -0.003,-3.137 -0.004,-4.181 l -1.664,0 -0.004,9.421 -0.109,-0.078 c -0.669,-0.527 -1.092,-1.281 -1.191,-2.123 -0.015,-0.128 -0.023,-0.254 -0.023,-0.381 0,-0.191 0.017,-0.38 0.051,-0.566 l 0.009,-0.116 c 0,-0.303 -0.216,-0.572 -0.524,-0.628 -0.039,-0.01 -0.078,-0.011 -0.117,-0.011 -0.302,0 -0.571,0.215 -0.628,0.523 -0.079,0.438 -0.094,0.884 -0.04,1.329 0.14,1.183 0.735,2.239 1.672,2.976 0.28,0.22 0.584,0.4 0.9,0.546 l 0,0.027 0.06,0 c 0.566,0.25 1.177,0.384 1.802,0.384 0.175,0 0.351,-0.011 0.527,-0.032 0.322,-0.038 0.561,-0.309 0.564,-0.632 0.009,-1.58 1.195,-2.923 2.76,-3.131 l 0,1.213 c 0,0.172 -0.004,0.37 0,0.574 l 0,0.074 0.001,0 c 0.013,0.662 0.093,1.377 0.517,1.58 0.261,0.125 0.447,0.191 0.743,0.191 0.068,0 0.141,0 0.222,-0.01 0.381,-0.035 0.715,-0.275 0.863,-0.56 0.611,-1.174 1.628,-1.988 2.93,-1.988 0.133,0 0.27,0.01 0.409,0.026 l 0,0.113 c 0,0.172 -0.004,0.37 0,0.574 l 0,0.074 0.001,0 c 0.013,0.662 0.093,1.377 0.517,1.58 0.26,0.125 0.447,0.191 0.743,0.191 0.067,0 0.141,0 0.222,-0.01 0.38,-0.035 0.716,-0.275 0.863,-0.56 0.61,-1.174 1.626,-1.99 2.928,-1.99 0.178,0 0.36,0.015 0.548,0.046 0.036,0.01 0.071,0.01 0.107,0.01 0.306,0 0.577,-0.221 0.629,-0.533 0.059,-0.349 -0.176,-0.678 -0.525,-0.737 -0.243,-0.041 -0.486,-0.06 -0.726,-0.06 -0.991,0 -1.938,0.336 -2.702,0.919 l 0,-2.596 c 0.547,-0.645 1.166,-1.489 1.59,-2.424 0.568,-1.247 0.693,-2.399 0.686,-3.204 m -3.493,11.631 c -0.766,0 -1.385,0.621 -1.385,1.385 0,0.763 0.619,1.383 1.385,1.383 0.764,0 1.384,-0.62 1.384,-1.383 0,-0.764 -0.62,-1.385 -1.384,-1.385 m -5.687,0 c -0.764,0 -1.384,0.621 -1.384,1.385 0,0.763 0.62,1.383 1.384,1.383 0.764,0 1.385,-0.62 1.385,-1.383 0,-0.764 -0.621,-1.385 -1.385,-1.385 m 15.052,0.168 c -0.765,0 -1.385,0.619 -1.385,1.383 0,0.765 0.62,1.384 1.385,1.384 0.765,0 1.384,-0.619 1.384,-1.384 0,-0.764 -0.619,-1.383 -1.384,-1.383 m -20.763,0.01 c -0.765,0 -1.385,0.621 -1.385,1.385 0,0.762 0.62,1.383 1.385,1.383 0.766,0 1.385,-0.621 1.385,-1.383 0,-0.764 -0.619,-1.385 -1.385,-1.385"/></clipPath><clipPath id="clipPath69125-4" clipPathUnits="userSpaceOnUse"><path id="path69127-0" d="M 2267.72,3401.57 0,3401.57 0,0 l 2267.72,0 0,3401.57 z"/></clipPath><clipPath id="clipPath69131-9" clipPathUnits="userSpaceOnUse"><path id="path69133-4" d="M 0.030029,3401.58 2267.73,3401.58 2267.73,0 0.030029,0 l 0,3401.58 z"/></clipPath><clipPath id="clipPath69095-8" clipPathUnits="userSpaceOnUse"><path id="path69097-8" d="m 192.909,3015.018 -4.821,0 0.004,9.496 c 1.044,-0.523 1.764,-1.599 1.764,-2.841 0,-0.354 0.286,-0.641 0.641,-0.641 0.352,0 0.639,0.287 0.639,0.641 0,1.961 -1.277,3.626 -3.044,4.222 l -0.093,0.032 c -0.418,0.132 -0.864,0.202 -1.327,0.202 -1.754,0 -3.184,1.425 -3.184,3.176 0,0.218 -0.108,0.41 -0.275,0.524 l 0,9.214 c 0,0.211 -0.172,0.384 -0.384,0.384 l -0.078,-0.01 -6.854,0 0,-6.681 6.547,0 0,-2.939 c -0.142,-0.118 -0.234,-0.293 -0.234,-0.493 0,-0.496 0.082,-0.974 0.234,-1.42 l 0,-2.908 c 0,-0.213 0.172,-0.385 0.385,-0.385 0.212,0 0.384,0.172 0.384,0.385 l 0,1.523 c 0.578,-0.705 1.367,-1.235 2.272,-1.485 l 0,-4.334 c -0.548,-0.645 -1.166,-1.49 -1.591,-2.423 -0.576,-1.266 -0.697,-2.434 -0.686,-3.24 l -2.376,0 c 0.007,0.805 -0.118,1.957 -0.686,3.204 -0.424,0.935 -1.043,1.779 -1.59,2.424 l 0,2.596 c 0.764,-0.583 1.711,-0.919 2.702,-0.919 0.24,0 0.483,0.019 0.726,0.06 0.349,0.059 0.584,0.388 0.525,0.737 -0.052,0.312 -0.323,0.533 -0.629,0.533 -0.036,0 -0.071,0 -0.107,-0.01 -0.188,-0.031 -0.37,-0.046 -0.548,-0.046 -1.302,0 -2.318,0.816 -2.928,1.99 -0.147,0.285 -0.483,0.525 -0.863,0.56 -0.081,0.01 -0.155,0.01 -0.222,0.01 -0.296,0 -0.483,-0.066 -0.743,-0.191 -0.424,-0.203 -0.504,-0.918 -0.517,-1.58 l -0.001,0 0,-0.074 c -0.004,-0.204 0,-0.402 0,-0.574 l 0,-0.113 c -0.139,-0.017 -0.276,-0.026 -0.409,-0.026 -1.302,0 -2.319,0.814 -2.93,1.988 -0.148,0.285 -0.482,0.525 -0.863,0.56 -0.081,0.01 -0.154,0.01 -0.222,0.01 -0.296,0 -0.482,-0.066 -0.743,-0.191 -0.424,-0.203 -0.504,-0.918 -0.517,-1.58 l -0.001,0 0,-0.074 c -0.004,-0.204 0,-0.402 0,-0.574 l 0,-1.213 c -1.565,0.208 -2.751,1.551 -2.76,3.131 -0.003,0.323 -0.242,0.594 -0.564,0.632 -0.176,0.021 -0.352,0.032 -0.527,0.032 -0.625,0 -1.236,-0.134 -1.802,-0.384 l -0.06,0 0,-0.027 c -0.316,-0.146 -0.62,-0.326 -0.9,-0.546 -0.937,-0.737 -1.532,-1.793 -1.672,-2.976 -0.054,-0.445 -0.039,-0.891 0.04,-1.329 0.057,-0.308 0.326,-0.523 0.628,-0.523 0.039,0 0.078,0 0.117,0.011 0.308,0.056 0.524,0.325 0.524,0.628 l -0.009,0.116 c -0.034,0.186 -0.051,0.375 -0.051,0.566 0,0.127 0.008,0.253 0.023,0.381 0.099,0.842 0.522,1.596 1.191,2.123 l 0.109,0.078 0.004,-9.421 -4.38,0 0,23.318 c 0,2.411 1.954,4.364 4.364,4.364 l 24.003,0 c 2.411,0 4.365,-1.953 4.365,-4.364 l 0,-23.318 m -15.57,14.399 c -0.766,0 -1.385,-0.62 -1.385,-1.383 0,-0.764 0.619,-1.385 1.385,-1.385 0.764,0 1.384,0.621 1.384,1.385 0,0.763 -0.62,1.383 -1.384,1.383 m -5.687,0 c -0.764,0 -1.384,-0.62 -1.384,-1.383 0,-0.764 0.62,-1.385 1.384,-1.385 0.764,0 1.385,0.621 1.385,1.385 0,0.763 -0.621,1.383 -1.385,1.383 m 15.052,0.167 c -0.765,0 -1.385,-0.619 -1.385,-1.384 0,-0.764 0.62,-1.383 1.385,-1.383 0.765,0 1.384,0.619 1.384,1.383 0,0.765 -0.619,1.384 -1.384,1.384 m -20.763,0.01 c -0.765,0 -1.385,-0.621 -1.385,-1.383 0,-0.764 0.62,-1.385 1.385,-1.385 0.766,0 1.385,0.621 1.385,1.385 0,0.762 -0.619,1.383 -1.385,1.383 m 20.481,-14.576 -1.55,0 c 0,0.032 0,0.064 0,0.096 0,0.607 0.099,1.496 0.535,2.455 0.269,0.589 0.641,1.142 1.012,1.62 10e-4,-1.381 0.002,-3.126 0.003,-4.171 m -7.253,0 -1.55,0 c 0.001,1.049 0.002,2.771 0.003,4.136 0.371,-0.476 0.742,-1.03 1.012,-1.618 0.438,-0.961 0.536,-1.848 0.536,-2.458 0,-0.02 -10e-4,-0.04 -10e-4,-0.06 m -3.215,0 -0.808,0 c 0.008,0.805 -0.117,1.957 -0.685,3.204 -0.424,0.935 -1.04,1.779 -1.591,2.424 l 0,2.596 c 0.765,-0.582 1.709,-0.918 2.698,-0.918 0.127,0 0.255,0.01 0.383,0.017 l 0.003,-7.323 m -2.471,0 -1.55,0 c 0.001,1.049 0.003,2.771 0.003,4.136 0.371,-0.476 0.743,-1.03 1.011,-1.618 0.437,-0.961 0.536,-1.848 0.536,-2.458 0,-0.02 0,-0.04 0,-0.06 m -3.213,0 -0.835,0 c 0.012,0.806 -0.107,1.979 -0.686,3.25 -0.425,0.933 -1.041,1.777 -1.589,2.423 l 0,2.284 c 0.698,-0.917 1.741,-1.562 2.955,-1.72 l 0.151,0 0.004,-6.237 m -2.499,0 -1.55,0 c 0.001,1.044 0.003,2.796 0.004,4.181 0.371,-0.476 0.744,-1.03 1.011,-1.619 0.437,-0.959 0.536,-1.847 0.536,-2.456 0,-0.036 0,-0.071 -0.001,-0.106 m 12.103,18.469 -0.964,0 -0.051,0.05 c 0,0 0,3.018 0,3.116 l -0.69,0 -0.053,0.051 0,0.555 0.053,0.053 1.705,0 0.051,-0.053 0,-3.722 -0.051,-0.05 m -0.481,4.365 c -0.16,0 -0.3,0.041 -0.416,0.119 -0.115,0.08 -0.173,0.177 -0.173,0.292 0,0.114 0.056,0.211 0.172,0.289 0.114,0.077 0.253,0.116 0.417,0.116 0.165,0 0.306,-0.04 0.423,-0.12 0.117,-0.078 0.174,-0.174 0.174,-0.285 0,-0.115 -0.057,-0.212 -0.174,-0.292 -0.117,-0.078 -0.258,-0.119 -0.423,-0.119"/></clipPath><clipPath id="clipPath69101-2" clipPathUnits="userSpaceOnUse"><path id="path69103-4" d="M 2267.72,3401.57 0,3401.57 0,0 l 2267.72,0 0,3401.57 z"/></clipPath><clipPath id="clipPath69107-5" clipPathUnits="userSpaceOnUse"><path id="path69109-5" d="M 0.030029,3401.58 2267.73,3401.58 2267.73,0 0.030029,0 l 0,3401.58 z"/></clipPath><clipPath id="clipPath14999" clipPathUnits="userSpaceOnUse"><path id="path15001" d="m 0,3401.575 2267.717,0 L 2267.717,0 0,0 0,3401.575 z"/></clipPath><clipPath id="clipPath15009" clipPathUnits="userSpaceOnUse"><path id="path15011" d="m -21.2593,21.2598 42.5186,0 0,-42.5196 -42.5186,0 0,42.5196 z"/></clipPath><clipPath id="clipPath14999-1" clipPathUnits="userSpaceOnUse"><path id="path15001-7" d="m 0,3401.575 2267.717,0 L 2267.717,0 0,0 0,3401.575 z"/></clipPath><clipPath id="clipPath15009-4" clipPathUnits="userSpaceOnUse"><path id="path15011-0" d="m -21.2593,21.2598 42.5186,0 0,-42.5196 -42.5186,0 0,42.5196 z"/></clipPath></defs><metadata id="metadata7"/><g id="layer1" transform="translate(-189.32416,-35.371372)"><rect style="fill:#252438;fill-opacity:1;fill-rule:nonzero;stroke:none" id="rect120983" width="625.052" height="625.052" x="189.324" y="35.371"/><g id="g14997" clip-path="url(#clipPath14999-1)" transform="matrix(11.798859,0,0,-11.798859,-1011.9613,5020.5035)"><g id="g15003" transform="matrix(1,0,0,-1,130.56201,393.99414)"><g id="g15005"><g id="g15007" clip-path="url(#clipPath15009-4)"><g id="g15017" transform="matrix(1.1250127,0,0,1.1250127,-11.26203,-5.9620507)"><path id="path15019" d="m 0,0 c 1.075,0 1.943,-0.868 1.943,-1.937 0,-1.07 -0.868,-1.938 -1.943,-1.938 -1.069,0 -1.94,0.868 -1.94,1.938 C -1.94,-0.868 -1.069,0 0,0" style="fill:#fed25b;fill-opacity:1;fill-rule:nonzero;stroke:none"/></g><g id="g15021" transform="matrix(1.1250127,0,0,1.1250127,-16.74208,2.9078865)"><path id="path15023" d="m 0,0 c 0.609,0 1.115,0.439 1.227,1.014 l -2.456,0 C -1.117,0.439 -0.609,0 0,0 m 0.785,-1.289 c 0.143,-1.18 0.74,-2.235 1.681,-2.968 0.178,-0.14 0.365,-0.264 0.56,-0.372 l 0,4.273 c 0,0.01 -0.002,0.02 -0.002,0.03 l 0,1.457 C 2.841,1.057 2.642,1.014 2.434,1.014 l -0.343,0 C 2.003,0.224 1.472,-0.433 0.752,-0.709 l 0,-0.035 c 0,-0.181 0.01,-0.362 0.033,-0.545 m 11.382,-0.108 0.003,0 0,-14.736 16.484,0 0,14.752 -0.008,0 0,0.699 -16.479,0 0,-0.715 z m -14.599,8.449 4.866,0 c 0.208,0 0.402,-0.041 0.583,-0.114 l 0,2.837 c 0,0.643 0.518,1.165 1.165,1.165 0.643,0 1.164,-0.52 1.164,-1.163 0,0 0.005,-4.157 0.008,-7.117 0.519,0.668 1.04,1.443 1.418,2.268 0.612,1.343 0.751,2.587 0.751,3.44 0,0.703 -0.095,1.138 -0.095,1.148 -0.02,0.084 -0.032,0.172 -0.032,0.255 0,0.532 0.365,1.012 0.907,1.136 0.623,0.144 1.244,-0.239 1.394,-0.862 C 9.723,9.929 10.354,7.169 8.892,3.963 8.303,2.666 7.444,1.494 6.68,0.592 l 0,-2.384 c 0.046,0.047 0.084,0.096 0.134,0.142 1.084,1.078 2.498,1.703 4.008,1.798 l 0,7.582 c 0,1.771 1.448,3.213 3.222,3.213 l 12.806,0 c 1.755,0 3.132,-1.215 3.132,-2.766 l 0,-0.107 C 29.991,7.958 30,7.846 30,7.73 l 0,-26.554 c 0,-0.37 -0.303,-0.671 -0.673,-0.671 l -17.83,0 c -0.373,0 -0.675,0.301 -0.675,0.671 l 0,17.182 C 9.787,-1.734 8.824,-2.178 8.078,-2.92 7.232,-3.759 6.764,-4.874 6.76,-6.063 c 0,-0.451 -0.339,-0.832 -0.787,-0.885 -1.66,-0.203 -3.298,0.252 -4.614,1.282 -1.318,1.027 -2.154,2.505 -2.356,4.162 -0.029,0.254 -0.044,0.507 -0.044,0.761 0,0.055 0.005,0.11 0.007,0.165 -0.572,0.326 -0.98,0.91 -1.057,1.592 l -0.341,0 c -0.873,0 -1.585,0.71 -1.585,1.581 l 0,2.879 c 0,0.871 0.712,1.578 1.585,1.578" style="fill:#fed25b;fill-opacity:1;fill-rule:nonzero;stroke:none"/></g><g id="g15025" transform="matrix(1.1250127,0,0,1.1250127,2.7781274,-9.5211408)"><path id="path15027" d="m 0,0 c -0.136,0.161 -0.738,0.858 -0.738,0.858 -0.035,0.036 -0.049,0.081 -0.049,0.126 0,0.028 0.005,0.057 0.017,0.084 0.032,0.069 0.105,0.113 0.183,0.113 l 1.43,0 C 0.78,1.38 0.746,1.593 0.746,1.813 c 0,1.158 0.938,2.095 2.097,2.095 1.16,0 2.102,-0.937 2.102,-2.095 C 4.945,1.474 4.862,1.154 4.721,0.873 4.633,0.673 4.313,-0.066 4.279,-0.159 4.316,-0.27 4.74,-1.615 4.74,-1.615 4.745,-1.635 4.747,-1.654 4.747,-1.673 4.747,-1.714 4.735,-1.756 4.71,-1.789 4.671,-1.84 4.613,-1.871 4.55,-1.871 l -5.189,0 c -0.068,0 -0.131,0.036 -0.168,0.095 -0.019,0.032 -0.029,0.067 -0.029,0.103 0,0.029 0.004,0.061 0.022,0.089 0,0 0.709,1.383 0.814,1.584" style="fill:#fed25b;fill-opacity:1;fill-rule:nonzero;stroke:none"/></g><g id="g15029" transform="matrix(1.1250127,0,0,1.1250127,9.8819073,-2.6320133)"><path id="path15031" d="m 0,0 c -1.421,-1.116 -3.192,-1.614 -4.989,-1.4 -0.112,0.012 -0.219,0.047 -0.314,0.096 l 2.479,4.819 1.459,0 0,-2.113 c 0.056,0.041 0.112,0.077 0.166,0.12 0.675,0.531 1.179,1.218 1.491,1.993 l 2.04,0 C 1.954,2.131 1.152,0.905 0,0" style="fill:#fed25b;fill-opacity:1;fill-rule:nonzero;stroke:none"/></g><g id="g15033" transform="matrix(1.1250127,0,0,1.1250127,0.91094394,1.3225187)"><path id="path15035" d="M 0,0 4.057,0 2.121,-3.768 C 2.05,-2.215 1.231,-0.834 0,0" style="fill:#fed25b;fill-opacity:1;fill-rule:nonzero;stroke:none"/></g></g></g></g></g></g></svg>